<svg clip-rule="evenodd" fill-rule="evenodd" stroke-linejoin="round" stroke-miterlimit="2" viewBox="0 0 20 20" xmlns="http://www.w3.org/2000/svg"><circle cx="10" cy="10" fill="#1882ff" r="10"/><path d="m19.96 10.88c.046-.512.052-1.027.02-1.54l-3.71.78-3.13-2.66c-.135-.113-.306-.175-.482-.175-.308 0-.585.189-.698.475l-1.71 4.4-1.98-7.73c-.083-.333-.384-.569-.728-.569-.269 0-.519.145-.652.379l-2.62 4.63h-4.2c-.057.498-.077.999-.06 1.5h4.7c.27 0 .52-.15.65-.38l1.92-3.39 2.1 8.2c.087.328.386.558.725.558.305 0 .58-.186.695-.468l2.17-5.6 2.6 2.21c.18.15.42.21.65.16z" fill="#fff"/></svg>